# xmcd
#
# Track frame offsets: 
#        150
#        14652
#        34208
#        51271
#        68258
#        82629
#        100350
#        116751
#        133613
#        151520
#        166732
#        183552
#        196797
#        213899
#        231273
#
# Disc length: 3361 seconds
#
# Revision: 4
# Processed by: cddbd v1.5.2PL0 Copyright (c) Steve Scherf et al.
# Submitted via: ExactAudioCopy v1.3
#
DISCID=b80d1f0f
DTITLE=Various Artist - All 90's [CD2] [Original 90's Classics]
DYEAR=2008
DGENRE=Electronic
TTITLE0=Aqua - Barbie Girl
TTITLE1=Corona - The Rhythm of the night
TTITLE2=Everything But the Girl - Missing
TTITLE3=Ultra Nate - Free
TTITLE4=Robin S - Show me love
TTITLE5=Armand Van Helden - You don't know me
TTITLE6=Mousse T. vs Hot'N'Juicy - Horny'98
TTITLE7=Ann-Lee - 2 times
TTITLE8=La Bouche - Be my lover
TTITLE9=Scatman John - Scatman
TTITLE10=Crystal Waters - Gypsy Woman
TTITLE11=Felix - Don't you want me
TTITLE12=Real 2 Real - I like to move it
TTITLE13=Leila K - Open Sasame
TTITLE14=Jaydee - Plastic Dream
EXTD=YEAR: 2008
EXTT0=
EXTT1=
EXTT2=
EXTT3=
EXTT4=
EXTT5=
EXTT6=
EXTT7=
EXTT8=
EXTT9=
EXTT10=
EXTT11=
EXTT12=
EXTT13=
EXTT14=
PLAYORDER=
